<mxfile host="65bd71144e">
    <diagram name="Seite-1" id="gylbvoxMA0md3qg8GaHM">
        <mxGraphModel dx="836" dy="999" grid="1" gridSize="10" guides="1" tooltips="1" connect="1" arrows="1" fold="1" page="1" pageScale="1" pageWidth="827" pageHeight="1169" math="0" shadow="0">
            <root>
                <mxCell id="0"/>
                <mxCell id="1" parent="0"/>
                <mxCell id="5Ts_VFppCyEGoZbiud__-1" value="Visualisierung modellierter Geschäftsprozesse des OpenTalos EAM" style="shape=umlFrame;whiteSpace=wrap;html=1;pointerEvents=0;recursiveResize=0;container=1;collapsible=0;width=400;height=30;align=left;" parent="1" vertex="1">
                    <mxGeometry x="10" y="20" width="800" height="940" as="geometry"/>
                </mxCell>
                <mxCell id="5Ts_VFppCyEGoZbiud__-3" value="Programm 2: BPMN Konvertierung" style="shape=umlFrame;whiteSpace=wrap;html=1;pointerEvents=0;recursiveResize=0;container=1;collapsible=0;width=260;height=30;" parent="5Ts_VFppCyEGoZbiud__-1" vertex="1">
                    <mxGeometry x="25" y="540" width="710" height="210" as="geometry"/>
                </mxCell>
                <mxCell id="wEUyzExfNlaNoi49jksf-5" style="edgeStyle=orthogonalEdgeStyle;rounded=0;orthogonalLoop=1;jettySize=auto;html=1;exitX=1;exitY=0.75;exitDx=0;exitDy=0;entryX=1;entryY=0.5;entryDx=0;entryDy=0;" parent="5Ts_VFppCyEGoZbiud__-3" source="5Ts_VFppCyEGoZbiud__-47" target="5Ts_VFppCyEGoZbiud__-50" edge="1">
                    <mxGeometry relative="1" as="geometry"/>
                </mxCell>
                <mxCell id="5Ts_VFppCyEGoZbiud__-47" value="Generalsierte Prozesse&lt;div&gt;einlesen&lt;/div&gt;" style="html=1;align=center;verticalAlign=top;rounded=1;absoluteArcSize=1;arcSize=10;dashed=0;whiteSpace=wrap;" parent="5Ts_VFppCyEGoZbiud__-3" vertex="1">
                    <mxGeometry x="90" y="55" width="140" height="40" as="geometry"/>
                </mxCell>
                <mxCell id="5Ts_VFppCyEGoZbiud__-70" style="edgeStyle=orthogonalEdgeStyle;rounded=0;orthogonalLoop=1;jettySize=auto;html=1;exitX=0;exitY=0.5;exitDx=0;exitDy=0;entryX=1;entryY=0.5;entryDx=0;entryDy=0;" parent="5Ts_VFppCyEGoZbiud__-3" source="5Ts_VFppCyEGoZbiud__-50" target="5Ts_VFppCyEGoZbiud__-55" edge="1">
                    <mxGeometry relative="1" as="geometry"/>
                </mxCell>
                <mxCell id="5Ts_VFppCyEGoZbiud__-50" value="BPMN Elemente&lt;div&gt;hinzufügen&lt;/div&gt;" style="html=1;align=center;verticalAlign=top;rounded=1;absoluteArcSize=1;arcSize=10;dashed=0;whiteSpace=wrap;" parent="5Ts_VFppCyEGoZbiud__-3" vertex="1">
                    <mxGeometry x="470" y="125" width="140" height="40" as="geometry"/>
                </mxCell>
                <mxCell id="5Ts_VFppCyEGoZbiud__-57" style="edgeStyle=orthogonalEdgeStyle;rounded=0;orthogonalLoop=1;jettySize=auto;html=1;exitX=0;exitY=0.5;exitDx=0;exitDy=0;entryX=1;entryY=0.5;entryDx=0;entryDy=0;" parent="5Ts_VFppCyEGoZbiud__-3" source="5Ts_VFppCyEGoZbiud__-51" target="5Ts_VFppCyEGoZbiud__-56" edge="1">
                    <mxGeometry relative="1" as="geometry"/>
                </mxCell>
                <mxCell id="5Ts_VFppCyEGoZbiud__-51" value="BPMN XML&amp;nbsp;&lt;div&gt;erstellen und speichern&lt;/div&gt;" style="html=1;align=center;verticalAlign=top;rounded=1;absoluteArcSize=1;arcSize=10;dashed=0;whiteSpace=wrap;" parent="5Ts_VFppCyEGoZbiud__-3" vertex="1">
                    <mxGeometry x="130" y="125" width="140" height="40" as="geometry"/>
                </mxCell>
                <mxCell id="5Ts_VFppCyEGoZbiud__-53" style="edgeStyle=orthogonalEdgeStyle;rounded=0;orthogonalLoop=1;jettySize=auto;html=1;exitX=1;exitY=0.5;exitDx=0;exitDy=0;entryX=0;entryY=0.5;entryDx=0;entryDy=0;" parent="5Ts_VFppCyEGoZbiud__-3" source="5Ts_VFppCyEGoZbiud__-52" target="5Ts_VFppCyEGoZbiud__-47" edge="1">
                    <mxGeometry relative="1" as="geometry"/>
                </mxCell>
                <mxCell id="5Ts_VFppCyEGoZbiud__-52" value="" style="ellipse;fillColor=strokeColor;html=1;" parent="5Ts_VFppCyEGoZbiud__-3" vertex="1">
                    <mxGeometry x="10" y="60" width="30" height="30" as="geometry"/>
                </mxCell>
                <mxCell id="5Ts_VFppCyEGoZbiud__-71" style="edgeStyle=orthogonalEdgeStyle;rounded=0;orthogonalLoop=1;jettySize=auto;html=1;exitX=0;exitY=0.5;exitDx=0;exitDy=0;entryX=1;entryY=0.5;entryDx=0;entryDy=0;" parent="5Ts_VFppCyEGoZbiud__-3" source="5Ts_VFppCyEGoZbiud__-55" target="5Ts_VFppCyEGoZbiud__-51" edge="1">
                    <mxGeometry relative="1" as="geometry"/>
                </mxCell>
                <mxCell id="5Ts_VFppCyEGoZbiud__-55" value="BPMN Diagramm&amp;nbsp;&lt;div&gt;erstellen&lt;/div&gt;" style="html=1;align=center;verticalAlign=top;rounded=1;absoluteArcSize=1;arcSize=10;dashed=0;whiteSpace=wrap;" parent="5Ts_VFppCyEGoZbiud__-3" vertex="1">
                    <mxGeometry x="300" y="125" width="140" height="40" as="geometry"/>
                </mxCell>
                <mxCell id="5Ts_VFppCyEGoZbiud__-56" value="" style="ellipse;html=1;shape=endState;fillColor=strokeColor;" parent="5Ts_VFppCyEGoZbiud__-3" vertex="1">
                    <mxGeometry x="10" y="130" width="30" height="30" as="geometry"/>
                </mxCell>
                <mxCell id="5Ts_VFppCyEGoZbiud__-61" value="Programm n: SVG-Konvertierung zur Abbildung in einem Dokumentationssystem" style="shape=umlFrame;whiteSpace=wrap;html=1;pointerEvents=0;recursiveResize=0;container=1;collapsible=0;width=325;height=30;" parent="5Ts_VFppCyEGoZbiud__-1" vertex="1">
                    <mxGeometry x="25" y="800" width="710" height="120" as="geometry"/>
                </mxCell>
                <mxCell id="5Ts_VFppCyEGoZbiud__-62" value="Generalsierte Prozesse&lt;div&gt;einlesen&lt;/div&gt;" style="html=1;align=center;verticalAlign=top;rounded=1;absoluteArcSize=1;arcSize=10;dashed=0;whiteSpace=wrap;" parent="5Ts_VFppCyEGoZbiud__-61" vertex="1">
                    <mxGeometry x="90" y="55" width="140" height="40" as="geometry"/>
                </mxCell>
                <mxCell id="5Ts_VFppCyEGoZbiud__-66" style="edgeStyle=orthogonalEdgeStyle;rounded=0;orthogonalLoop=1;jettySize=auto;html=1;exitX=1;exitY=0.5;exitDx=0;exitDy=0;entryX=0;entryY=0.5;entryDx=0;entryDy=0;" parent="5Ts_VFppCyEGoZbiud__-61" source="5Ts_VFppCyEGoZbiud__-67" target="5Ts_VFppCyEGoZbiud__-62" edge="1">
                    <mxGeometry relative="1" as="geometry"/>
                </mxCell>
                <mxCell id="5Ts_VFppCyEGoZbiud__-67" value="" style="ellipse;fillColor=strokeColor;html=1;" parent="5Ts_VFppCyEGoZbiud__-61" vertex="1">
                    <mxGeometry x="10" y="60" width="30" height="30" as="geometry"/>
                </mxCell>
                <mxCell id="5Ts_VFppCyEGoZbiud__-73" value="Agiles BPMN-Projekt: 1.Qtl. 2026 Dauer 2-3 Monate" style="text;html=1;align=left;verticalAlign=middle;whiteSpace=wrap;rounded=0;" parent="5Ts_VFppCyEGoZbiud__-1" vertex="1">
                    <mxGeometry x="25" y="510" width="600" height="30" as="geometry"/>
                </mxCell>
                <mxCell id="modQz7k9_1uLZjvx2WUS-33" value="Schnittstelle: EAM Geschäftsprozessmodelldaten" style="shape=umlFrame;whiteSpace=wrap;html=1;pointerEvents=0;recursiveResize=0;container=1;collapsible=0;width=290;height=30;align=left;" parent="5Ts_VFppCyEGoZbiud__-1" vertex="1">
                    <mxGeometry x="20" y="90" width="530" height="380" as="geometry"/>
                </mxCell>
                <mxCell id="modQz7k9_1uLZjvx2WUS-34" style="edgeStyle=orthogonalEdgeStyle;rounded=0;orthogonalLoop=1;jettySize=auto;html=1;exitX=1;exitY=0.5;exitDx=0;exitDy=0;" parent="modQz7k9_1uLZjvx2WUS-33" source="modQz7k9_1uLZjvx2WUS-36" target="modQz7k9_1uLZjvx2WUS-39" edge="1">
                    <mxGeometry relative="1" as="geometry"/>
                </mxCell>
                <mxCell id="modQz7k9_1uLZjvx2WUS-35" value="Files[]" style="edgeLabel;html=1;align=center;verticalAlign=middle;resizable=0;points=[];" parent="modQz7k9_1uLZjvx2WUS-34" vertex="1" connectable="0">
                    <mxGeometry x="0.1" y="-2" relative="1" as="geometry">
                        <mxPoint x="-10" y="-14" as="offset"/>
                    </mxGeometry>
                </mxCell>
                <mxCell id="modQz7k9_1uLZjvx2WUS-36" value="File Auswahl" style="html=1;align=center;verticalAlign=top;rounded=1;absoluteArcSize=1;arcSize=10;dashed=0;whiteSpace=wrap;" parent="modQz7k9_1uLZjvx2WUS-33" vertex="1">
                    <mxGeometry x="110" y="56" width="140" height="40" as="geometry"/>
                </mxCell>
                <mxCell id="modQz7k9_1uLZjvx2WUS-38" style="edgeStyle=orthogonalEdgeStyle;rounded=0;orthogonalLoop=1;jettySize=auto;html=1;exitX=0.5;exitY=1;exitDx=0;exitDy=0;entryX=0.5;entryY=0;entryDx=0;entryDy=0;" parent="modQz7k9_1uLZjvx2WUS-33" source="modQz7k9_1uLZjvx2WUS-39" target="modQz7k9_1uLZjvx2WUS-43" edge="1">
                    <mxGeometry relative="1" as="geometry"/>
                </mxCell>
                <mxCell id="modQz7k9_1uLZjvx2WUS-39" value="Files Parsen und KnotenTypisieren" style="html=1;align=center;verticalAlign=top;rounded=1;absoluteArcSize=1;arcSize=10;dashed=0;whiteSpace=wrap;" parent="modQz7k9_1uLZjvx2WUS-33" vertex="1">
                    <mxGeometry x="340" y="56" width="140" height="40" as="geometry"/>
                </mxCell>
                <mxCell id="modQz7k9_1uLZjvx2WUS-40" style="edgeStyle=orthogonalEdgeStyle;rounded=0;orthogonalLoop=1;jettySize=auto;html=1;exitX=1;exitY=0.5;exitDx=0;exitDy=0;entryX=0;entryY=0.5;entryDx=0;entryDy=0;" parent="modQz7k9_1uLZjvx2WUS-33" source="modQz7k9_1uLZjvx2WUS-41" target="modQz7k9_1uLZjvx2WUS-36" edge="1">
                    <mxGeometry relative="1" as="geometry"/>
                </mxCell>
                <mxCell id="modQz7k9_1uLZjvx2WUS-41" value="" style="ellipse;fillColor=strokeColor;html=1;" parent="modQz7k9_1uLZjvx2WUS-33" vertex="1">
                    <mxGeometry x="40" y="61" width="30" height="30" as="geometry"/>
                </mxCell>
                <mxCell id="modQz7k9_1uLZjvx2WUS-42" style="edgeStyle=orthogonalEdgeStyle;rounded=0;orthogonalLoop=1;jettySize=auto;html=1;exitX=0.5;exitY=1;exitDx=0;exitDy=0;entryX=0.5;entryY=0;entryDx=0;entryDy=0;" parent="modQz7k9_1uLZjvx2WUS-33" source="modQz7k9_1uLZjvx2WUS-43" target="modQz7k9_1uLZjvx2WUS-44" edge="1">
                    <mxGeometry relative="1" as="geometry"/>
                </mxCell>
                <mxCell id="modQz7k9_1uLZjvx2WUS-43" value="Graphen Daten gem. Anforderungen reduzieren" style="html=1;align=center;verticalAlign=top;rounded=1;absoluteArcSize=1;arcSize=10;dashed=0;whiteSpace=wrap;" parent="modQz7k9_1uLZjvx2WUS-33" vertex="1">
                    <mxGeometry x="340" y="134" width="150" height="40" as="geometry"/>
                </mxCell>
                <mxCell id="modQz7k9_1uLZjvx2WUS-44" value="Prozessdaten relational Speichern" style="html=1;align=center;verticalAlign=top;rounded=1;absoluteArcSize=1;arcSize=10;dashed=0;whiteSpace=wrap;" parent="modQz7k9_1uLZjvx2WUS-33" vertex="1">
                    <mxGeometry x="340" y="204" width="140" height="50" as="geometry"/>
                </mxCell>
                <mxCell id="modQz7k9_1uLZjvx2WUS-45" style="edgeStyle=orthogonalEdgeStyle;rounded=0;orthogonalLoop=1;jettySize=auto;html=1;exitX=0;exitY=0.5;exitDx=0;exitDy=0;entryX=1;entryY=0.5;entryDx=0;entryDy=0;" parent="modQz7k9_1uLZjvx2WUS-33" source="modQz7k9_1uLZjvx2WUS-46" target="modQz7k9_1uLZjvx2WUS-48" edge="1">
                    <mxGeometry relative="1" as="geometry"/>
                </mxCell>
                <mxCell id="modQz7k9_1uLZjvx2WUS-46" value="Transaktion&lt;div&gt;&amp;nbsp;bestätigen&lt;/div&gt;" style="html=1;align=center;verticalAlign=top;rounded=1;absoluteArcSize=1;arcSize=10;dashed=0;whiteSpace=wrap;" parent="modQz7k9_1uLZjvx2WUS-33" vertex="1">
                    <mxGeometry x="340" y="274" width="140" height="50" as="geometry"/>
                </mxCell>
                <mxCell id="modQz7k9_1uLZjvx2WUS-47" style="edgeStyle=orthogonalEdgeStyle;rounded=0;orthogonalLoop=1;jettySize=auto;html=1;exitX=0;exitY=0.5;exitDx=0;exitDy=0;entryX=1;entryY=0.5;entryDx=0;entryDy=0;" parent="modQz7k9_1uLZjvx2WUS-33" source="modQz7k9_1uLZjvx2WUS-48" target="modQz7k9_1uLZjvx2WUS-49" edge="1">
                    <mxGeometry relative="1" as="geometry"/>
                </mxCell>
                <mxCell id="modQz7k9_1uLZjvx2WUS-48" value="LogFile erstellen" style="html=1;align=center;verticalAlign=top;rounded=1;absoluteArcSize=1;arcSize=10;dashed=0;whiteSpace=wrap;" parent="modQz7k9_1uLZjvx2WUS-33" vertex="1">
                    <mxGeometry x="110" y="279" width="140" height="40" as="geometry"/>
                </mxCell>
                <mxCell id="modQz7k9_1uLZjvx2WUS-49" value="" style="ellipse;html=1;shape=endState;fillColor=strokeColor;" parent="modQz7k9_1uLZjvx2WUS-33" vertex="1">
                    <mxGeometry x="40" y="284" width="30" height="30" as="geometry"/>
                </mxCell>
                <mxCell id="modQz7k9_1uLZjvx2WUS-59" style="edgeStyle=orthogonalEdgeStyle;rounded=0;orthogonalLoop=1;jettySize=auto;html=1;exitX=0.15;exitY=0.95;exitDx=0;exitDy=0;exitPerimeter=0;" parent="modQz7k9_1uLZjvx2WUS-33" source="modQz7k9_1uLZjvx2WUS-58" edge="1">
                    <mxGeometry relative="1" as="geometry">
                        <Array as="points">
                            <mxPoint x="628" y="259"/>
                            <mxPoint x="630" y="259"/>
                            <mxPoint x="630" y="300"/>
                        </Array>
                        <mxPoint x="655" y="273.9999999999998" as="sourcePoint"/>
                        <mxPoint x="480" y="300" as="targetPoint"/>
                    </mxGeometry>
                </mxCell>
                <mxCell id="modQz7k9_1uLZjvx2WUS-57" value="IHK-Projektarbeit: &lt;br&gt;Oktober/November 2025,&amp;nbsp; Dauer: 2Wochen, Dokumentgetriebenes Wasserfallprojekt, Maximale Testsuite abdeckung durch TDD(TestDrivenDevelopement)" style="text;html=1;align=left;verticalAlign=middle;whiteSpace=wrap;rounded=0;" parent="5Ts_VFppCyEGoZbiud__-1" vertex="1">
                    <mxGeometry x="20" y="40" width="730" height="50" as="geometry"/>
                </mxCell>
                <mxCell id="modQz7k9_1uLZjvx2WUS-61" value="SQL DB&lt;br&gt;Geschäftsprozesse" style="text;html=1;align=center;verticalAlign=middle;whiteSpace=wrap;rounded=0;" parent="5Ts_VFppCyEGoZbiud__-1" vertex="1">
                    <mxGeometry x="640" y="240" width="60" height="30" as="geometry"/>
                </mxCell>
                <mxCell id="modQz7k9_1uLZjvx2WUS-64" style="edgeStyle=orthogonalEdgeStyle;rounded=0;orthogonalLoop=1;jettySize=auto;html=1;exitX=1;exitY=0.5;exitDx=0;exitDy=0;entryX=0.85;entryY=0.95;entryDx=0;entryDy=0;entryPerimeter=0;dashed=1;" parent="5Ts_VFppCyEGoZbiud__-1" source="5Ts_VFppCyEGoZbiud__-47" target="modQz7k9_1uLZjvx2WUS-58" edge="1">
                    <mxGeometry relative="1" as="geometry"/>
                </mxCell>
                <mxCell id="modQz7k9_1uLZjvx2WUS-65" style="edgeStyle=orthogonalEdgeStyle;rounded=0;orthogonalLoop=1;jettySize=auto;html=1;exitX=1;exitY=0.5;exitDx=0;exitDy=0;entryX=0.66;entryY=0.933;entryDx=0;entryDy=0;entryPerimeter=0;dashed=1;" parent="5Ts_VFppCyEGoZbiud__-1" source="5Ts_VFppCyEGoZbiud__-62" target="modQz7k9_1uLZjvx2WUS-58" edge="1">
                    <mxGeometry relative="1" as="geometry"/>
                </mxCell>
                <mxCell id="wEUyzExfNlaNoi49jksf-6" value="weiter Anwendungen können im Idelafall zuverlässig anhand der Dokumentation, Datenbankschema und den Artefakten entwickelt werden" style="text;html=1;align=left;verticalAlign=middle;whiteSpace=wrap;rounded=0;" parent="5Ts_VFppCyEGoZbiud__-1" vertex="1">
                    <mxGeometry x="25" y="770" width="720" height="30" as="geometry"/>
                </mxCell>
                <mxCell id="wEUyzExfNlaNoi49jksf-3" value="" style="endArrow=none;dashed=1;html=1;dashPattern=8 8;strokeWidth=2;rounded=0;exitX=0.001;exitY=0.565;exitDx=0;exitDy=0;exitPerimeter=0;fillColor=#f8cecc;strokeColor=#b85450;" parent="5Ts_VFppCyEGoZbiud__-1" edge="1">
                    <mxGeometry width="50" height="50" relative="1" as="geometry">
                        <mxPoint x="2.999999999999954" y="491.1" as="sourcePoint"/>
                        <mxPoint x="800" y="490" as="targetPoint"/>
                    </mxGeometry>
                </mxCell>
                <mxCell id="wEUyzExfNlaNoi49jksf-4" value="Abgrenzung zum IHK-Projekt" style="edgeLabel;html=1;align=center;verticalAlign=middle;resizable=0;points=[];" parent="wEUyzExfNlaNoi49jksf-3" vertex="1" connectable="0">
                    <mxGeometry x="-0.74" relative="1" as="geometry">
                        <mxPoint x="272" as="offset"/>
                    </mxGeometry>
                </mxCell>
                <mxCell id="modQz7k9_1uLZjvx2WUS-58" value="" style="shape=datastore;html=1;labelPosition=center;verticalLabelPosition=bottom;align=center;verticalAlign=top;" parent="5Ts_VFppCyEGoZbiud__-1" vertex="1">
                    <mxGeometry x="640" y="289" width="50" height="60" as="geometry"/>
                </mxCell>
                <mxCell id="2" style="edgeStyle=none;html=1;exitX=1;exitY=0.5;exitDx=0;exitDy=0;entryX=0;entryY=0.5;entryDx=0;entryDy=0;dashed=1;" parent="5Ts_VFppCyEGoZbiud__-1" source="modQz7k9_1uLZjvx2WUS-44" target="modQz7k9_1uLZjvx2WUS-58" edge="1">
                    <mxGeometry relative="1" as="geometry"/>
                </mxCell>
            </root>
        </mxGraphModel>
    </diagram>
</mxfile>